<svg width="101" height="97" viewBox="0 0 101 97" fill="none" xmlns="http://www.w3.org/2000/svg">
<path d="M69.7031 34.4651C69.0625 34.4534 68.5469 33.9182 68.5703 33.2776C68.582 32.6252 69.1172 32.1214 69.7578 32.1331L96.9178 32.8674C96.992 32.8674 97.0662 32.8792 97.1287 32.887C98.0232 33.012 98.7771 33.4768 99.2928 34.1253L99.3553 34.219C99.828 34.8596 100.082 35.6682 99.9959 36.5198C99.9959 36.5706 99.9842 36.6136 99.9764 36.6683C99.9569 36.8362 99.9139 37.0042 99.8592 37.1722C99.8163 37.3089 99.7655 37.4456 99.7108 37.5706L93.0585 67.9886C93.0389 68.0941 93.0077 68.1878 92.953 68.2816C92.4686 69.4378 91.8514 70.4886 91.1053 71.4027C90.3162 72.3793 89.4022 73.2113 88.3826 73.9027C87.3514 74.5863 86.2303 75.1215 85.0428 75.4769C83.867 75.8324 82.6248 76.0121 81.3553 76.0121H47.4293C46.1793 76.0121 44.9488 75.8324 43.7848 75.4886C43.3239 75.3519 42.8825 75.1956 42.4489 75.016L42.5661 76.1917C42.6403 76.8519 42.8083 77.4418 43.0583 77.9457C43.3434 78.5121 43.7106 78.9847 44.1403 79.3754C44.6247 79.8168 45.1794 80.1527 45.7497 80.3832C46.3708 80.6371 46.9997 80.7503 47.5466 80.7503H83.0466C83.6872 80.7503 84.2146 81.2738 84.2146 81.9261C84.2146 82.5785 83.6912 83.0941 83.0466 83.0941H47.5466C46.7263 83.0941 45.7927 82.9262 44.8786 82.5473C44.07 82.223 43.2614 81.7387 42.5583 81.0981C41.9294 80.5199 41.3825 79.8169 40.9724 78.9848C40.6052 78.2387 40.3435 77.3754 40.2458 76.4223L39.9607 73.5864C39.1521 72.9887 38.4177 72.2934 37.7654 71.4966C36.988 70.563 36.3474 69.5005 35.8513 68.3247C34.5818 65.3403 22.4023 37.1097 22.4023 36.7227C21.289 34.5274 19.3867 30.7852 15.4687 29.086L15.4257 29.0664C15.0351 28.8985 14.6484 28.7617 14.2265 28.6367C13.8163 28.5117 13.3867 28.418 12.957 28.332C12.5273 28.2578 12.0547 28.1953 11.5586 28.1641C11.0742 28.1445 10.5938 28.1328 10.0977 28.1524H1.168C0.52738 28.1524 0 27.6367 0 26.9844C0 26.3437 0.52344 25.8164 1.168 25.8164H9.9922C10.5899 25.7851 11.1602 25.7968 11.7031 25.8281C12.2617 25.8593 12.8164 25.9335 13.375 26.0273C13.9102 26.1328 14.4141 26.246 14.8867 26.3828C15.3594 26.5312 15.8008 26.6875 16.2226 26.8671C16.2851 26.8867 16.3476 26.9101 16.4101 26.9414C19.3203 28.2109 21.2539 30.3242 22.5976 32.332C22.9218 31.9648 23.332 31.6484 23.8281 31.4492C24.1015 31.332 24.375 31.2499 24.6562 31.2187C24.8984 31.1757 25.1289 31.1757 25.3593 31.1874C34.9609 31.5038 44.5743 31.7226 54.1793 31.9843C54.82 32.0038 55.3355 32.5429 55.3121 33.1835C55.2926 33.8359 54.7535 34.3397 54.1129 34.3163L25.4839 33.5273C25.398 33.539 25.316 33.539 25.23 33.5273C25.1363 33.5155 25.0503 33.5155 24.9683 33.5273C24.8824 33.539 24.8003 33.5585 24.7261 33.5898C24.4722 33.6952 24.2847 33.8944 24.191 34.1366C24.0972 34.3788 24.0855 34.6523 24.191 34.9023L24.7066 36.0898C24.7261 36.1523 24.7495 36.2069 24.7691 36.2577L37.9881 67.4177C38.3982 68.3748 38.9217 69.2458 39.5545 70.0115C40.1834 70.7771 40.9295 71.449 41.7498 71.9881C42.5779 72.535 43.4725 72.9647 44.4412 73.2498C45.3748 73.5233 46.3865 73.6717 47.4256 73.6717H81.3516C82.4024 73.6717 83.4102 73.5233 84.3672 73.242C85.3437 72.9491 86.2461 72.5155 87.0781 71.9608C87.9062 71.4022 88.6445 70.7303 89.2851 69.9452C89.8827 69.1874 90.3984 68.3358 90.789 67.414L97.4492 36.945C97.4687 36.8513 97.5 36.7575 97.5546 36.6599C97.5859 36.6091 97.6054 36.5427 97.6289 36.4919C97.6406 36.4489 97.6484 36.3981 97.6484 36.3434L97.6601 36.3122C97.6914 36.0583 97.6171 35.82 97.4921 35.6169L97.4492 35.5739C97.2929 35.3747 97.0586 35.238 96.7968 35.195L69.6988 34.4606L69.7031 34.4651ZM78.2343 84.7891C79.8515 84.7891 81.332 85.4492 82.4062 86.5235L82.4179 86.5352C83.4882 87.6055 84.1523 89.0782 84.1523 90.7071C84.1523 92.336 83.4921 93.8048 82.4179 94.879L82.4062 94.8907C81.3359 95.961 79.8632 96.6251 78.2343 96.6251C76.6054 96.6251 75.1249 95.965 74.0546 94.8907V94.879C72.9843 93.8087 72.3202 92.336 72.3202 90.7071C72.3202 89.0782 72.9803 87.5977 74.0546 86.5274C75.1249 85.4571 76.6093 84.793 78.2343 84.793V84.7891ZM70.6366 20.9411C70.785 20.7223 70.7928 20.4567 70.6561 20.2145C70.5311 19.984 70.3006 19.859 70.035 19.859H65.9998C65.6092 19.859 65.285 19.5348 65.285 19.1442V1.0312C65.285 0.46479 64.824 0 64.2538 0H57.5194C56.953 0 56.4882 0.46094 56.4882 1.0312V19.1442C56.4882 19.5348 56.1718 19.859 55.7851 19.859H51.7382C51.4764 19.859 51.2538 19.984 51.1171 20.2145C50.9921 20.4567 50.9999 20.7184 51.1366 20.9411L60.2772 31.5431C60.4139 31.7618 60.6327 31.879 60.8866 31.879C61.1405 31.879 61.3475 31.7618 61.4842 31.5431L70.6248 20.9411H70.6366ZM50.9996 84.7891C52.6285 84.7891 54.0973 85.4492 55.1715 86.5235L55.191 86.5352C56.2535 87.6055 56.9137 89.0782 56.9137 90.7071C56.9137 92.336 56.2535 93.8048 55.1793 94.879L55.1676 94.8907C54.1051 95.961 52.6246 96.6251 50.9957 96.6251C49.3668 96.6251 47.8863 95.965 46.816 94.8907V94.879C45.7457 93.8087 45.0816 92.336 45.0816 90.7071C45.0816 89.0782 45.7417 87.5977 46.816 86.5274C47.8863 85.4571 49.3707 84.793 50.9957 84.793L50.9996 84.7891ZM63.0696 62.4731C63.0813 63.1137 62.5774 63.6489 61.9251 63.6606C61.2845 63.6723 60.7493 63.1684 60.7376 62.5161L60.3704 44.3401C60.3587 43.6994 60.8626 43.1643 61.5149 43.1526C62.1555 43.1409 62.6907 43.6448 62.7024 44.2971L63.0696 62.4731ZM49.8936 62.5981C50.0498 63.227 49.6631 63.8598 49.0303 64.0161C48.4092 64.1645 47.7803 63.7739 47.6241 63.1528L43.3155 45.4928C43.167 44.8639 43.546 44.2311 44.1788 44.0748C44.8077 43.9263 45.4405 44.317 45.585 44.9381L49.8936 62.5981ZM75.8116 63.1567C75.6553 63.7777 75.0225 64.1645 74.4054 64.0199C73.7765 63.8637 73.3859 63.2309 73.5421 62.6019L77.8507 44.9419C77.9991 44.3208 78.628 43.9341 79.2569 44.0787C79.8858 44.2349 80.2647 44.8677 80.1202 45.4967L75.8116 63.1567Z" fill="#B4BAC9"/>
</svg>
