<svg width="98" height="96" viewBox="0 0 98 96" fill="none" xmlns="http://www.w3.org/2000/svg">
<path d="M47.3211 41.4337H69.9771C72.3482 41.3985 74.2544 39.4649 74.2544 37.0899C74.2544 34.7188 72.3482 32.7852 69.9771 32.7461H47.3211C46.157 32.7305 45.0359 33.1797 44.2078 33.9961C43.3797 34.8125 42.9109 35.9258 42.9109 37.0899C42.9109 38.254 43.3797 39.3711 44.2078 40.1876C45.0359 41.004 46.157 41.4532 47.3211 41.4337ZM47.3211 35.4103H69.9771C70.9068 35.4103 71.6607 36.1642 71.6607 37.0939C71.6607 38.0236 70.9068 38.7775 69.9771 38.7775H47.3211C46.8602 38.8048 46.407 38.6369 46.0711 38.3205C45.7352 38.0002 45.5438 37.5588 45.5438 37.0939C45.5438 36.6329 45.7352 36.1915 46.0711 35.8712C46.407 35.5548 46.8602 35.3868 47.3211 35.4141V35.4103ZM81.7081 56.2383C83.7901 56.2344 85.669 54.9766 86.462 53.0547C87.2589 51.1289 86.8136 48.9141 85.3409 47.4414C83.8682 45.9726 81.6495 45.5312 79.7276 46.332C77.8057 47.1289 76.5518 49.0078 76.5518 51.0898C76.5557 53.9336 78.8644 56.2383 81.7081 56.2383ZM81.7081 48.5977C82.7159 48.5977 83.6222 49.2071 84.0089 50.1368C84.3917 51.0665 84.1808 52.1368 83.4659 52.8477C82.755 53.5586 81.6847 53.7735 80.755 53.3868C79.8253 53.004 79.2198 52.0977 79.2159 51.0899C79.2198 49.7149 80.3331 48.5977 81.7081 48.5977ZM60.4031 68.4417H53.0437H53.0476C52.6921 68.4417 52.3523 68.5823 52.1023 68.8284C51.8562 69.0784 51.7156 69.4183 51.7156 69.7698V79.3284C51.7156 80.0628 52.3093 80.6604 53.0476 80.6604H60.407H60.4031C61.1374 80.6604 61.7351 80.0628 61.7351 79.3284V69.7698C61.7351 69.4183 61.5944 69.0784 61.3444 68.8284C61.0944 68.5823 60.7586 68.4417 60.4031 68.4417ZM59.075 78.0003H54.3758V71.1058H59.0711L59.075 78.0003ZM60.5984 84.805H60.5945C60.5945 85.5394 60.0007 86.1331 59.2664 86.1331H34.7314C34.372 86.1448 34.0244 86.0081 33.7666 85.7581C33.5087 85.5081 33.3642 85.1604 33.3642 84.8011C33.3642 84.4417 33.5087 84.0979 33.7666 83.8479C34.0244 83.5979 34.372 83.4612 34.7314 83.4729H59.2664C60.0008 83.4729 60.5945 84.0667 60.5945 84.801L60.5984 84.805ZM72.9694 58.883H65.5983C64.8678 58.8869 64.2741 59.4768 64.2702 60.2111V79.3281C64.2702 80.0625 64.8679 80.6601 65.6022 80.6601H72.9733C73.3249 80.6601 73.6647 80.5195 73.9147 80.2695C74.1608 80.0195 74.3014 79.6796 74.3014 79.3281V60.2111C74.3014 59.8556 74.1608 59.5197 73.9108 59.2697C73.6608 59.0236 73.321 58.883 72.9694 58.883ZM71.6374 78H66.9343V61.547H71.6374V78ZM81.7114 42.246H81.7075C83.7895 42.2421 85.6645 40.9882 86.4614 39.0624C87.2583 37.1405 86.8169 34.9257 85.3442 33.453C83.8715 31.9803 81.6567 31.5428 79.7348 32.3358C77.809 33.1327 76.5551 35.0077 76.5512 37.0897C76.5512 39.9374 78.8598 42.242 81.7074 42.242L81.7114 42.246ZM81.7114 34.6054L81.7075 34.6093C82.7153 34.6093 83.6216 35.2148 84.0083 36.1484C84.3911 37.0781 84.1763 38.1484 83.4653 38.8593C82.7505 39.5702 81.6801 39.7812 80.7505 39.3945C79.8208 39.0077 79.2153 38.1015 79.2153 37.0937C79.2153 36.4335 79.4809 35.8007 79.9458 35.332C80.4145 34.8671 81.0474 34.6054 81.7075 34.6054L81.7114 34.6054ZM85.5278 64.4454L78.1684 64.4493C77.4301 64.4493 76.8364 65.0431 76.8364 65.7774V79.3284C76.8364 79.68 76.977 80.0198 77.227 80.2698C77.4731 80.5198 77.813 80.6604 78.1684 80.6604H85.5278H85.5239C85.8794 80.6604 86.2153 80.5198 86.4653 80.2698C86.7153 80.0198 86.856 79.68 86.856 79.3284V65.7734C86.856 65.039 86.2622 64.4453 85.524 64.4453L85.5278 64.4454ZM84.1958 78.0004H79.4966V67.1054H84.1958V78.0004ZM20.5478 7.8164C20.5478 8.17187 20.4072 8.50781 20.1572 8.75781C19.9072 9.00781 19.5673 9.14843 19.2158 9.14843H11.2314C10.497 9.14843 9.89937 8.55077 9.89937 7.81643C9.89937 7.08206 10.497 6.48833 11.2314 6.48833H19.2158C19.9502 6.48833 20.5478 7.08205 20.5478 7.8164ZM11.0439 72.9574C11.0439 72.223 11.6377 71.6254 12.3759 71.6254H27.1139H27.11C27.8444 71.6254 28.442 72.2231 28.442 72.9574C28.442 73.6918 27.8443 74.2855 27.11 74.2855H12.372H12.3759C12.0204 74.2855 11.6845 74.1488 11.4345 73.8988C11.1845 73.6488 11.0439 73.309 11.0439 72.9574ZM20.5478 13.2734C20.5478 13.625 20.4072 13.9648 20.1572 14.2148C19.9072 14.4648 19.5673 14.6054 19.2158 14.6054H11.2314C10.5087 14.582 9.93447 13.9922 9.93447 13.2734C9.93447 12.5508 10.5087 11.9609 11.2314 11.9414H19.2158C19.9502 11.9414 20.5439 12.5352 20.5478 13.2695L20.5478 13.2734ZM11.0439 79.3284C11.0439 78.594 11.6416 78.0003 12.3759 78.0003H48.1059C48.4653 77.9886 48.8168 78.1253 49.0746 78.3753C49.3325 78.6253 49.477 78.973 49.477 79.3323C49.477 79.6917 49.3325 80.0355 49.0746 80.2855C48.8168 80.5355 48.4653 80.6722 48.1059 80.6605H12.3759C12.0204 80.6605 11.6806 80.5198 11.4306 80.2698C11.1806 80.0198 11.0439 79.68 11.0439 79.3284ZM47.3209 55.4334H69.9769C72.348 55.3943 74.2542 53.4607 74.2542 51.0896C74.2542 48.7146 72.348 46.781 69.9769 46.7458H47.3209C46.1568 46.7263 45.0357 47.1755 44.2076 47.9919C43.3795 48.8083 42.9107 49.9255 42.9107 51.0896C42.9107 52.2537 43.3794 53.3669 44.2076 54.1834C45.0357 54.9998 46.1568 55.449 47.3209 55.4334ZM47.3209 49.41L69.9769 49.4061C70.9066 49.4061 71.6605 50.16 71.6605 51.0897C71.6605 52.0194 70.9066 52.7733 69.9769 52.7733H47.3209C46.86 52.8006 46.4068 52.6366 46.0709 52.3163C45.735 51.9999 45.5436 51.5545 45.5436 51.0936C45.5436 50.6287 45.735 50.1873 46.0709 49.8709C46.4068 49.5506 46.86 49.3866 47.3209 49.41ZM76.0789 10.543C76.0789 10.8946 75.9383 11.2344 75.6922 11.4844C75.4422 11.7305 75.1023 11.8711 74.7508 11.8711H70.3055C69.5711 11.8711 68.9735 11.2774 68.9735 10.543C68.9735 9.80868 69.5711 9.21103 70.3055 9.21103H74.7508C75.1023 9.21103 75.4422 9.35165 75.6922 9.60165C75.9422 9.85165 76.0828 10.1914 76.0789 10.543ZM88.8949 0H9.0039C4.0351 0.003906 0.0078 4.0352 0 9.0039V86.3629C0.007813 91.3317 4.0352 95.3629 9.0039 95.3668H88.8949C93.8637 95.3629 97.891 91.3316 97.8988 86.3629V9.0039C97.891 4.0351 93.8636 0.0039 88.8949 0ZM95.2347 86.359C95.2308 89.859 92.3949 92.6949 88.8949 92.6988H9.0039C5.5039 92.6949 2.668 89.859 2.6641 86.359V21.089H95.2341L95.2347 86.359ZM95.2347 18.425H2.6647V9.0031C2.66861 5.5031 5.5045 2.6672 9.0045 2.6633H88.8955C92.3955 2.66721 95.2314 5.5031 95.2353 9.0031L95.2347 18.425ZM88.0003 10.5422C88.0003 10.8938 87.8636 11.2336 87.6136 11.4836C87.3636 11.7336 87.0237 11.8742 86.6722 11.8742H82.2269C81.4925 11.8742 80.8949 11.2766 80.8949 10.5422C80.8949 9.80789 81.4925 9.21413 82.2269 9.21413H86.6683C87.0237 9.21022 87.3636 9.35085 87.6136 9.60085C87.8636 9.85085 88.0003 10.1906 88.0003 10.5422ZM64.1523 10.5422H64.1562C64.1562 10.8938 64.0156 11.2336 63.7656 11.4836C63.5156 11.7336 63.1757 11.8742 62.8242 11.8742H58.3789C57.6445 11.8742 57.0469 11.2766 57.0469 10.5422C57.0469 9.80789 57.6445 9.21413 58.3789 9.21413H62.8203C63.5586 9.21413 64.1523 9.80785 64.1523 10.5422ZM24.6253 40.1752C27.7151 40.1752 30.5003 38.3119 31.6839 35.4564C32.8675 32.6009 32.2151 29.3158 30.0277 27.1283C27.8441 24.9447 24.555 24.2885 21.6996 25.4721C18.8441 26.6557 16.9808 29.4409 16.9808 32.5346C16.9886 36.7534 20.4066 40.1713 24.6253 40.1752ZM24.6253 27.5541C26.637 27.5541 28.4534 28.765 29.2269 30.6283C29.9964 32.4877 29.5707 34.6322 28.1449 36.0541C26.723 37.4799 24.5785 37.9057 22.7191 37.1361C20.8558 36.3627 19.6449 34.5463 19.6449 32.5345C19.6449 29.7845 21.8753 27.5541 24.6253 27.5541ZM12.3753 56.2382H36.8753C37.2269 56.2382 37.5667 56.0976 37.8167 55.8476C38.0667 55.5976 38.2034 55.2616 38.2034 54.9062C38.2034 47.4101 32.1253 41.3282 24.6254 41.3282C17.1255 41.3282 11.0474 47.4102 11.0474 54.9062C11.0474 55.6405 11.641 56.2343 12.3753 56.2382ZM24.6253 43.9882C30.137 43.9921 34.7853 48.1054 35.4653 53.578H13.7853C14.465 48.1053 19.1095 43.996 24.6253 43.9882ZM48.1053 58.8832C48.4647 58.8754 48.8162 59.0082 49.0741 59.2621C49.3319 59.5121 49.4764 59.8559 49.4764 60.2152C49.4764 60.5746 49.3319 60.9184 49.0741 61.1684C48.8162 61.4223 48.4647 61.5551 48.1053 61.5473H23.3553C22.9959 61.5551 22.6483 61.4223 22.3905 61.1684C22.1326 60.9184 21.9881 60.5746 21.9881 60.2152C21.9881 59.8559 22.1326 59.5121 22.3905 59.2621C22.6483 59.0082 22.9959 58.8754 23.3553 58.8832H48.1053ZM11.0433 60.2113C11.0433 59.4769 11.6371 58.8793 12.3753 58.8793H17.6448C18.3636 58.8988 18.9378 59.4887 18.9378 60.2113C18.9378 60.93 18.3636 61.5199 17.6448 61.5433H12.3753C12.0198 61.5433 11.6839 61.4027 11.4339 61.1527C11.1839 60.9027 11.0433 60.5629 11.0433 60.2113ZM49.4413 72.9493V72.9454C49.4413 73.3009 49.3046 73.6446 49.0546 73.8946C48.8046 74.1485 48.4608 74.2891 48.1054 74.2852H32.8244C32.09 74.2852 31.4963 73.6915 31.4963 72.9571C31.4963 72.2228 32.09 71.6251 32.8244 71.6251H48.1054C48.4608 71.6251 48.8007 71.7658 49.0507 72.0158C49.3007 72.2658 49.4413 72.6017 49.4413 72.9572V72.9493ZM11.0433 66.586C11.0433 65.8516 11.6371 65.254 12.3753 65.254H48.1053C48.8436 65.254 49.4373 65.8517 49.4373 66.586C49.4373 67.3203 48.8436 67.918 48.1053 67.918H12.3753C12.0198 67.918 11.6839 67.7774 11.4339 67.5274C11.1839 67.2774 11.0433 66.9376 11.0433 66.586Z" fill="#B4BAC9"/>
</svg>
