<svg width="90" height="65" viewBox="0 0 90 65" fill="none" xmlns="http://www.w3.org/2000/svg">
<path d="M34.4022 44.9362C34.4022 44.3307 34.8905 43.8424 35.492 43.8424H37.4373C38.0428 43.8424 38.5311 44.3307 38.5311 44.9362C38.5311 45.5378 38.0428 46.03 37.4373 46.03H35.492C34.8904 46.03 34.4022 45.5417 34.4022 44.9362ZM9.1952 59.4012H8.37489C7.77333 59.4012 7.28109 59.8895 7.28109 60.491C7.28109 61.0926 7.76937 61.5808 8.37489 61.5808H9.1952C9.79676 61.5808 10.285 61.0925 10.285 60.491C10.285 59.8894 9.80062 59.4012 9.1952 59.4012ZM44.3082 30.4912H81.6672C82.2688 30.4912 82.761 30.9795 82.761 31.585V56.347C82.761 56.9525 82.2727 57.4408 81.6672 57.4408L44.3082 57.4369C43.7066 57.4369 43.2144 56.9486 43.2144 56.3431L43.2183 31.5851C43.2183 30.9796 43.7067 30.4912 44.3082 30.4912ZM45.398 55.2532H80.574V32.6752H45.398V55.2532ZM89.996 59.0266V61.1243C89.996 62.8821 88.5663 64.3118 86.8085 64.3118L39.1875 64.3079H19.4805C18.875 64.3079 18.3867 63.8196 18.3867 63.2181V60.1048C18.3867 59.5032 18.875 59.015 19.4805 59.015H23.3047C25.5859 59.015 27.4414 57.1595 27.4414 54.8783V49.4838H17.5664V61.2928C17.5664 62.953 16.1289 64.3084 14.3555 64.3084H3.1875C1.4297 64.3084 0 62.9568 0 61.2928V1.0938C0 0.492242 0.48828 0 1.0938 0H71.6448C72.2503 0 72.7386 0.488281 72.7386 1.0938V27.5978H82.2777C84.141 27.5978 85.6605 29.1251 85.6605 31.0001V57.9341H88.9144C89.5121 57.9341 89.9964 58.4224 89.9964 59.0279L89.996 59.0266ZM82.2733 29.7806H43.7263C43.0779 29.7806 42.531 30.3392 42.531 31.0033V57.9373H54.984C55.5895 57.9373 56.0778 58.4256 56.0778 59.0271V59.699L69.9368 59.6873L69.9055 59.031C69.9055 58.4255 70.3938 57.9412 70.9994 57.9412H83.4793L83.4715 31.0002C83.4715 30.3401 82.9208 29.7814 82.2723 29.7814L82.2733 29.7806ZM2.1873 2.18661V37.8776C2.50371 37.7761 2.83574 37.7096 3.1912 37.7096H14.3592C15.9998 37.7096 17.3397 38.8737 17.5311 40.3658H40.3431V30.9986C40.3431 29.1197 41.8626 27.5963 43.7259 27.5963H70.5499V2.18634L2.1873 2.18661ZM15.3863 42.5496H2.1873V56.8976H15.3863V42.5496ZM15.2808 40.366C15.1129 40.0887 14.7613 39.8895 14.3589 39.8895H3.18695C2.79633 39.8895 2.45648 40.0887 2.29242 40.366H15.2808ZM15.3863 61.296V59.0812H2.1873V61.296C2.1873 61.7491 2.64824 62.128 3.1912 62.128H14.3592C14.9178 62.128 15.3863 61.7452 15.3863 61.296ZM17.5699 47.304H40.3429V42.5501H17.5699V47.304ZM20.5699 62.128H36.1749C36.0694 61.8077 35.9991 61.4757 35.9991 61.1202V59.0264C35.9991 58.4209 36.4874 57.9366 37.0929 57.9366H40.3468L40.3429 49.4835H29.6279V54.8741C29.6279 54.9444 29.6201 55.0108 29.6162 55.0772H38.2373C38.8389 55.0772 39.3271 55.5655 39.3271 56.171C39.3271 56.7726 38.8388 57.2648 38.2373 57.2648H29.1553C28.21 59.5695 25.9483 61.1945 23.3076 61.1945H20.5732L20.5699 62.128ZM87.8159 60.1163H72.0459C71.8506 61.1124 70.9795 61.8663 69.9365 61.8663H56.0615C55.0263 61.8663 54.1357 61.1007 53.9326 60.1163H38.1826V61.1202C38.1826 61.6632 38.6435 62.1241 39.1865 62.1241H86.8075C87.3544 62.1241 87.8114 61.6632 87.8114 61.1202L87.8159 60.1163Z" fill="#B4BAC9"/>
</svg>
