<svg width="81" height="67" viewBox="0 0 81 67" fill="none" xmlns="http://www.w3.org/2000/svg">
<path d="M47.2728 16.2973C47.2728 12.4535 44.1478 9.32849 40.304 9.32849C36.4602 9.32849 33.3352 12.4535 33.3352 16.2973C33.3352 20.1411 36.4602 23.2661 40.304 23.2661C44.1478 23.2661 47.2728 20.1411 47.2728 16.2973ZM36.4638 16.2973C36.4638 14.1801 38.1904 12.4535 40.3076 12.4535C42.4248 12.4535 44.1514 14.1801 44.1514 16.2973C44.1514 18.4145 42.4248 20.1411 40.3076 20.1411C38.1904 20.1411 36.4638 18.4145 36.4638 16.2973Z" fill="#B4BAC9"/>
<path d="M80.2378 60.1053L68.4448 32.4333C67.7066 30.695 66.0073 29.57 64.1167 29.57H52.9217C56.7733 21.3434 56.6209 16.558 56.6053 16.297C56.6053 7.3087 49.2928 0 40.3083 0C31.32 0 24.0273 7.2969 24.0113 16.266C23.9918 16.8519 23.9684 21.6098 27.6949 29.571H16.4999C14.6093 29.571 12.9061 30.696 12.1718 32.4343L0.378839 60.1063C-0.242251 61.5672 -0.0938209 63.2235 0.781179 64.5477C1.65618 65.8719 3.12498 66.661 4.71088 66.661H75.9059C77.4918 66.661 78.9606 65.8719 79.8356 64.5477C80.7106 63.2235 80.859 61.5633 80.2379 60.1063L80.2378 60.1053ZM27.1328 16.2963C27.1328 9.0346 33.043 3.1243 40.3048 3.1243C47.5704 3.1243 53.4768 9.0345 53.4808 16.3663C53.4847 16.4718 53.7035 26.8043 40.3048 43.4993C26.9378 26.8393 27.1248 16.5153 27.1288 16.3703V16.3L27.1328 16.2963ZM52.1948 46.0463C52.1948 47.6518 47.4526 50.0775 40.3038 50.0775C33.155 50.0775 28.4128 47.6478 28.4128 46.0463C28.4128 45.0151 30.7019 43.2299 35.5261 42.4174C36.6159 43.8822 37.7995 45.394 39.1042 46.9643C39.4011 47.3237 39.8425 47.5268 40.3073 47.5268C40.7722 47.5268 41.2136 47.3198 41.5104 46.9643C42.8151 45.3979 43.9948 43.8862 45.0846 42.4174C49.9088 43.2299 52.1979 45.0112 52.1979 46.0463H52.1948ZM77.2258 62.8193C76.929 63.2724 76.4485 63.5302 75.9055 63.5302H4.70254C4.15957 63.5302 3.67914 63.2724 3.38224 62.8193C3.08536 62.3701 3.03458 61.8232 3.24552 61.3271L15.0385 33.6551C15.2885 33.0692 15.8588 32.6942 16.4955 32.6942H29.2685C30.4169 34.8231 31.8154 37.1317 33.5185 39.6122C28.3818 40.7606 25.288 43.1278 25.288 46.0497C25.288 49.6083 29.8271 51.9091 35.2177 52.7919C28.3036 56.331 19.2567 56.2099 12.9837 52.0926C12.265 51.62 11.2962 51.8192 10.8196 52.5419C10.347 53.2645 10.5462 54.2333 11.2688 54.706C15.0696 57.2021 19.7571 58.4208 24.4958 58.4208C30.1911 58.4208 35.9528 56.6396 40.3628 53.206C47.6245 53.1903 55.3158 50.6865 55.3158 46.0498C55.3158 44.1631 54.0228 42.5068 51.726 41.2607C54.6713 39.0224 58.5619 37.2529 61.89 38.2099C62.7103 38.4364 63.5853 37.9677 63.8197 37.1357C64.0541 36.3075 63.5776 35.4404 62.7455 35.206C57.6986 33.7724 52.1595 36.6122 48.3975 39.9521C47.9757 39.831 47.5382 39.7177 47.085 39.6161C48.7881 37.1356 50.1905 34.827 51.3389 32.6981H64.1119C64.7487 32.6981 65.3189 33.0731 65.5689 33.6591L77.3619 61.3351C77.5729 61.8312 77.526 62.3781 77.2252 62.8273L77.2258 62.8193Z" fill="#B4BAC9"/>
</svg>
