<svg width="60" height="61" viewBox="0 0 60 61" fill="none" xmlns="http://www.w3.org/2000/svg">
<path d="M29.6064 47.5635C28.4176 47.8035 27.2117 47.9496 26 48.0004V37.0511C26.9498 37.0939 27.8962 37.1941 28.834 37.3511C28.9637 37.3733 29.0965 37.3696 29.2248 37.3404C29.353 37.3112 29.4743 37.2569 29.5816 37.1808C29.6889 37.1046 29.7801 37.008 29.85 36.8966C29.9199 36.7851 29.9671 36.6609 29.9889 36.5312C30.0108 36.4014 30.0068 36.2687 29.9772 36.1405C29.9477 36.0123 29.8931 35.8911 29.8167 35.7841C29.7402 35.677 29.6434 35.586 29.5317 35.5164C29.4201 35.4468 29.2958 35.3999 29.166 35.3784C28.1185 35.2038 27.0611 35.0946 26 35.0514V26.0254H36.9806C36.9628 26.767 36.9325 27.516 36.876 28.272C36.857 28.536 36.9435 28.7967 37.1164 28.997C37.2894 29.1973 37.5347 29.3209 37.7986 29.3407C38.0625 29.3605 38.3234 29.2748 38.5243 29.1025C38.7252 28.9302 38.8495 28.6853 38.8701 28.4214C38.9308 27.6155 38.9625 26.8165 38.9806 26.0254H49C49.2652 26.0254 49.5196 25.9201 49.7071 25.7326C49.8946 25.545 50 25.2907 50 25.0254C50.0042 20.8828 48.9789 16.8041 47.0163 13.1559C45.0537 9.50773 42.2153 6.40442 38.7562 4.12496C35.2971 1.8455 31.3258 0.461349 27.1992 0.0969268C23.0727 -0.267496 18.9203 0.399236 15.1152 2.03719C11.3102 3.67514 7.97181 6.23296 5.4002 9.48073C2.82859 12.7285 1.10436 16.5644 0.382488 20.6436C-0.339381 24.7229 -0.0362521 28.9175 1.26462 32.8506C2.5655 36.7836 4.82335 40.3318 7.8352 43.1761C7.84405 43.1863 7.84655 43.1996 7.85595 43.2095C7.87163 43.2263 7.89336 43.2318 7.90995 43.2472C12.5335 47.6038 18.6473 50.0286 25 50.0254C26.6809 50.0254 28.3575 49.8573 30.0049 49.5234C30.2648 49.4706 30.4931 49.3167 30.6395 49.0955C30.7859 48.8744 30.8385 48.6041 30.7857 48.3442C30.7328 48.0843 30.5789 47.856 30.3578 47.7096C30.1366 47.5632 29.8664 47.5107 29.6064 47.5635ZM18.2308 47.0065C15.2418 46.0813 12.4733 44.5554 10.0948 42.5224C11.2168 41.5636 12.4279 40.7142 13.7115 39.9859C14.7254 42.6088 16.2631 44.9976 18.2308 47.0065ZM15.5076 39.0717C18.1808 37.8546 21.0651 37.1686 24 37.0518V47.9394C20.5508 47.3909 17.5124 44.0373 15.5076 39.0717ZM24 35.0517C20.8317 35.1671 17.7153 35.8917 14.8212 37.186C13.6814 33.5729 13.0724 29.8135 13.0132 26.0254H24V35.0517ZM26 2.11151C29.4435 2.65912 32.4776 6.00287 34.4825 10.9551C31.8109 12.1674 28.9311 12.8542 26 12.9783V2.11151ZM31.7692 3.04437C34.7515 3.96762 37.5144 5.48886 39.8893 7.51526C38.7695 8.47093 37.5606 9.31695 36.2792 10.0417C35.2658 7.42762 33.7314 5.04694 31.7692 3.04437ZM24 2.11151V12.9783C21.0689 12.8542 18.1891 12.1673 15.5175 10.9551C17.5224 6.00281 20.5564 2.65912 24 2.11151ZM13.7208 10.0416C12.4394 9.3168 11.2306 8.47075 10.1109 7.51507C12.4858 5.4888 15.2486 3.96763 18.2308 3.04437C16.2686 5.0469 14.7342 7.42756 13.7208 10.0416ZM24 14.9783V24.0254H13.0132C13.0724 20.2276 13.6846 16.4587 14.8304 12.8373C17.7227 14.1285 20.835 14.8552 24 14.9783ZM26 14.9783C29.165 14.8552 32.2773 14.1285 35.1695 12.8373C36.3154 16.4587 36.9275 20.2276 36.9867 24.0254H26V14.9783ZM47.9785 24.0254H38.9863C38.9341 19.9182 38.2609 15.8425 36.9896 11.9366C38.5514 11.0779 40.017 10.0547 41.3614 8.88458C45.3727 12.9334 47.7318 18.3314 47.9785 24.0254ZM8.63872 8.88445C9.98306 10.0547 11.4486 11.0779 13.0104 11.9366C11.7391 15.8425 11.0659 19.9182 11.0137 24.0254H2.02147C2.26814 18.3313 4.6273 12.9333 8.63872 8.88445ZM2.02147 26.0254H11.0137C11.0659 30.1261 11.7368 34.1953 13.0038 38.0957C11.44 38.9566 9.97246 39.9817 8.62591 41.1536C4.6221 37.1061 2.26784 31.7134 2.02147 26.0254ZM59 32.0254C54.5854 31.954 50.2815 30.6332 46.5869 28.2159C46.416 28.0926 46.2107 28.0262 46 28.0262C45.7893 28.0262 45.5839 28.0926 45.4131 28.2159C41.7185 30.6332 37.4145 31.954 33 32.0254C32.7348 32.0254 32.4804 32.1308 32.2929 32.3183C32.1053 32.5059 32 32.7602 32 33.0254V43.0254C32 55.3951 45.5547 59.9322 45.6914 59.9766C45.892 60.0417 46.108 60.0417 46.3086 59.9766C46.4453 59.9322 60 55.3951 60 43.0254V33.0254C60 32.7602 59.8946 32.5059 59.7071 32.3183C59.5196 32.1308 59.2652 32.0254 59 32.0254ZM58 43.0254C58 52.9473 47.9106 57.2393 46 57.9624C44.0893 57.2393 34 52.9473 34 43.0254V34.003C38.2536 33.7726 42.3807 32.4742 46 30.2276C49.6193 32.4742 53.7463 33.7726 58 34.003V43.0254ZM44 47.6114L52.293 39.3184C52.4809 39.1328 52.7346 39.0291 52.9987 39.03C53.2628 39.0308 53.5158 39.1361 53.7026 39.3229C53.8893 39.5096 53.9946 39.7626 53.9954 40.0267C53.9963 40.2908 53.8926 40.5445 53.707 40.7324L44.707 49.7324C44.6142 49.8253 44.5039 49.899 44.3826 49.9493C44.2613 49.9995 44.1313 50.0254 44 50.0254C43.8686 50.0254 43.7386 49.9995 43.6173 49.9493C43.496 49.899 43.3858 49.8253 43.2929 49.7324L38.2929 44.7324C38.1074 44.5445 38.0037 44.2908 38.0045 44.0267C38.0054 43.7626 38.1106 43.5096 38.2974 43.3229C38.4841 43.1361 38.7372 43.0308 39.0013 43.03C39.2654 43.0292 39.5191 43.1329 39.707 43.3184L44 47.6114Z" fill="#5a67d8"/>
</svg>
