<svg width="77" height="93" viewBox="0 0 77 93" fill="none" xmlns="http://www.w3.org/2000/svg">
<path d="M72.274 0H12.918C11.743 0.00132339 10.6164 0.46869 9.78556 1.29956C8.95469 2.13044 8.48732 3.25697 8.486 4.432V8.486H4.432C3.25697 8.48732 2.13044 8.95469 1.29956 9.78556C0.46869 10.6164 0.00132339 11.743 0 12.918V88.568C0.00132339 89.743 0.46869 90.8696 1.29956 91.7004C2.13044 92.5313 3.25697 92.9987 4.432 93H63.788C64.963 92.9987 66.0896 92.5313 66.9204 91.7004C67.7513 90.8696 68.2187 89.743 68.22 88.568V84.514H72.274C73.449 84.5127 74.5756 84.0453 75.4064 83.2144C76.2373 82.3836 76.7047 81.257 76.706 80.082V4.432C76.7047 3.25697 76.2373 2.13044 75.4064 1.29956C74.5756 0.46869 73.449 0.00132339 72.274 0ZM65.687 88.568C65.687 88.8175 65.6378 89.0646 65.5424 89.2951C65.4469 89.5256 65.3069 89.7351 65.1305 89.9115C64.9541 90.0879 64.7446 90.2279 64.5141 90.3234C64.2836 90.4189 64.0365 90.468 63.787 90.468H4.432C3.92809 90.468 3.44482 90.2678 3.0885 89.9115C2.73218 89.5552 2.532 89.0719 2.532 88.568V12.918C2.532 12.4141 2.73218 11.9308 3.0885 11.5745C3.44482 11.2182 3.92809 11.018 4.432 11.018H49.203V26.236C49.2035 26.5716 49.3373 26.8932 49.5749 27.1303C49.8124 27.3673 50.1344 27.5003 50.47 27.5H65.687V88.568ZM65.687 23.178L53.528 11.019H63.788C64.2919 11.019 64.7752 11.2192 65.1315 11.5755C65.4878 11.9318 65.688 12.4151 65.688 12.919L65.687 23.178ZM74.173 80.078C74.173 80.5819 73.9728 81.0652 73.6165 81.4215C73.2602 81.7778 72.7769 81.978 72.273 81.978H68.22V12.918C68.2187 11.743 67.7513 10.6164 66.9204 9.78556C66.0896 8.95469 64.963 8.48732 63.788 8.486H11.019V4.432C11.019 3.92809 11.2192 3.44482 11.5755 3.0885C11.9318 2.73218 12.4151 2.532 12.919 2.532H72.274C72.7779 2.532 73.2612 2.73218 73.6175 3.0885C73.9738 3.44482 74.174 3.92809 74.174 4.432L74.173 80.078ZM9.517 28.825C9.517 28.6587 9.54978 28.494 9.61346 28.3403C9.67715 28.1866 9.77049 28.047 9.88816 27.9294C10.0058 27.8119 10.1455 27.7186 10.2992 27.6551C10.4529 27.5915 10.6177 27.5589 10.784 27.559H19.665C19.8343 27.5542 20.0029 27.5835 20.1607 27.645C20.3185 27.7065 20.4624 27.799 20.5838 27.9171C20.7053 28.0352 20.8018 28.1764 20.8677 28.3324C20.9336 28.4885 20.9676 28.6561 20.9676 28.8255C20.9676 28.9949 20.9336 29.1625 20.8677 29.3186C20.8018 29.4746 20.7053 29.6158 20.5838 29.7339C20.4624 29.852 20.3185 29.9445 20.1607 30.006C20.0029 30.0675 19.8343 30.0968 19.665 30.092H10.784C10.448 30.092 10.1257 29.9585 9.88809 29.7209C9.65049 29.4833 9.517 29.161 9.517 28.825ZM22.648 28.825C22.648 28.4892 22.7814 28.1672 23.0188 27.9298C23.2562 27.6924 23.5782 27.559 23.914 27.559H24.991C25.1603 27.5542 25.3289 27.5835 25.4867 27.645C25.6445 27.7065 25.7884 27.799 25.9098 27.9171C26.0313 28.0352 26.1278 28.1764 26.1937 28.3324C26.2596 28.4885 26.2936 28.6561 26.2936 28.8255C26.2936 28.9949 26.2596 29.1625 26.1937 29.3186C26.1278 29.4746 26.0313 29.6158 25.9098 29.7339C25.7884 29.852 25.6445 29.9445 25.4867 30.006C25.3289 30.0675 25.1603 30.0968 24.991 30.092H23.914C23.5789 30.0907 23.2581 29.9566 23.0217 29.7191C22.7853 29.4816 22.6527 29.1601 22.653 28.825H22.648ZM9.517 35.331C9.517 34.995 9.65049 34.6727 9.88809 34.4351C10.1257 34.1975 10.448 34.064 10.784 34.064H14.564C14.7333 34.0592 14.9019 34.0885 15.0597 34.15C15.2175 34.2115 15.3614 34.304 15.4828 34.4221C15.6043 34.5402 15.7008 34.6814 15.7667 34.8374C15.8326 34.9935 15.8666 35.1611 15.8666 35.3305C15.8666 35.4999 15.8326 35.6675 15.7667 35.8236C15.7008 35.9796 15.6043 36.1208 15.4828 36.2389C15.3614 36.357 15.2175 36.4495 15.0597 36.511C14.9019 36.5725 14.7333 36.6018 14.564 36.597H10.784C10.6177 36.5971 10.4529 36.5645 10.2992 36.5009C10.1455 36.4374 10.0058 36.3441 9.88816 36.2266C9.77049 36.109 9.67715 35.9694 9.61346 35.8157C9.54978 35.662 9.517 35.4973 9.517 35.331ZM18.817 34.064H35.017C35.1863 34.0592 35.3549 34.0885 35.5127 34.15C35.6705 34.2115 35.8144 34.304 35.9358 34.4221C36.0573 34.5402 36.1538 34.6814 36.2197 34.8374C36.2856 34.9935 36.3196 35.1611 36.3196 35.3305C36.3196 35.4999 36.2856 35.6675 36.2197 35.8236C36.1538 35.9796 36.0573 36.1208 35.9358 36.2389C35.8144 36.357 35.6705 36.4495 35.5127 36.511C35.3549 36.5725 35.1863 36.6018 35.017 36.597H18.817C18.6477 36.6018 18.4791 36.5725 18.3213 36.511C18.1635 36.4495 18.0196 36.357 17.8982 36.2389C17.7767 36.1208 17.6802 35.9796 17.6143 35.8236C17.5484 35.6675 17.5144 35.4999 17.5144 35.3305C17.5144 35.1611 17.5484 34.9935 17.6143 34.8374C17.6802 34.6814 17.7767 34.5402 17.8982 34.4221C18.0196 34.304 18.1635 34.2115 18.3213 34.15C18.4791 34.0885 18.6477 34.0592 18.817 34.064ZM9.517 41.837C9.517 41.501 9.65049 41.1787 9.88809 40.9411C10.1257 40.7035 10.448 40.57 10.784 40.57H46.925C47.0943 40.5652 47.2629 40.5945 47.4207 40.656C47.5785 40.7175 47.7224 40.81 47.8438 40.9281C47.9653 41.0462 48.0618 41.1874 48.1277 41.3434C48.1936 41.4995 48.2276 41.6671 48.2276 41.8365C48.2276 42.0059 48.1936 42.1735 48.1277 42.3296C48.0618 42.4856 47.9653 42.6268 47.8438 42.7449C47.7224 42.863 47.5785 42.9555 47.4207 43.017C47.2629 43.0785 47.0943 43.1078 46.925 43.103H10.784C10.6177 43.1031 10.4529 43.0705 10.2992 43.0069C10.1455 42.9434 10.0058 42.8501 9.88816 42.7326C9.77049 42.615 9.67715 42.4754 9.61346 42.3217C9.54978 42.168 9.517 42.0033 9.517 41.837ZM9.517 48.337C9.517 48.1707 9.54978 48.006 9.61346 47.8523C9.67715 47.6986 9.77049 47.559 9.88816 47.4414C10.0058 47.3239 10.1455 47.2306 10.2992 47.1671C10.4529 47.1035 10.6177 47.0709 10.784 47.071H21.553C21.8827 47.0803 22.1959 47.2178 22.4258 47.4543C22.6558 47.6908 22.7844 48.0076 22.7844 48.3375C22.7844 48.6674 22.6558 48.9842 22.4258 49.2207C22.1959 49.4572 21.8827 49.5947 21.553 49.604H10.784C10.4488 49.604 10.1273 49.4712 9.88986 49.2347C9.65239 48.9981 9.51832 48.6772 9.517 48.342V48.337ZM27.853 47.076H57.437C57.7667 47.0853 58.0799 47.2228 58.3098 47.4593C58.5398 47.6958 58.6684 48.0126 58.6684 48.3425C58.6684 48.6724 58.5398 48.9892 58.3098 49.2257C58.0799 49.4622 57.7667 49.5997 57.437 49.609H27.853C27.5233 49.5997 27.2101 49.4622 26.9802 49.2257C26.7502 48.9892 26.6216 48.6724 26.6216 48.3425C26.6216 48.0126 26.7502 47.6958 26.9802 47.4593C27.2101 47.2228 27.5233 47.0853 27.853 47.076ZM58.703 54.848C58.703 55.1838 58.5696 55.5058 58.3322 55.7432C58.0948 55.9806 57.7728 56.114 57.437 56.114H10.784C10.6147 56.1188 10.4461 56.0895 10.2883 56.028C10.1305 55.9665 9.98662 55.874 9.86518 55.7559C9.74374 55.6378 9.6472 55.4966 9.58129 55.3406C9.51537 55.1845 9.48141 55.0169 9.48141 54.8475C9.48141 54.6781 9.51537 54.5105 9.58129 54.3544C9.6472 54.1984 9.74374 54.0572 9.86518 53.9391C9.98662 53.821 10.1305 53.7285 10.2883 53.667C10.4461 53.6055 10.6147 53.5762 10.784 53.581H57.437C57.6033 53.581 57.768 53.6138 57.9217 53.6775C58.0754 53.7411 58.215 53.8345 58.3326 53.9522C58.4501 54.0698 58.5434 54.2095 58.6069 54.3632C58.6705 54.5169 58.7031 54.6817 58.703 54.848ZM9.517 61.353C9.517 61.1867 9.54978 61.022 9.61346 60.8683C9.67715 60.7146 9.77049 60.575 9.88816 60.4575C10.0058 60.3399 10.1455 60.2466 10.2992 60.1831C10.4529 60.1195 10.6177 60.0869 10.784 60.087H32.41C32.7397 60.0963 33.0529 60.2338 33.2828 60.4703C33.5128 60.7068 33.6414 61.0236 33.6414 61.3535C33.6414 61.6834 33.5128 62.0002 33.2828 62.2367C33.0529 62.4732 32.7397 62.6107 32.41 62.62H10.784C10.448 62.62 10.1257 62.4865 9.88809 62.2489C9.65049 62.0113 9.517 61.689 9.517 61.353ZM58.703 61.353C58.7031 61.5193 58.6705 61.6841 58.6069 61.8378C58.5434 61.9915 58.4501 62.1312 58.3326 62.2488C58.215 62.3665 58.0754 62.4599 57.9217 62.5235C57.768 62.5872 57.6033 62.62 57.437 62.62H38.718C38.3883 62.6107 38.0751 62.4732 37.8452 62.2367C37.6152 62.0002 37.4866 61.6834 37.4866 61.3535C37.4866 61.0236 37.6152 60.7068 37.8452 60.4703C38.0751 60.2338 38.3883 60.0963 38.718 60.087H57.437C57.7728 60.087 58.0948 60.2204 58.3322 60.4578C58.5696 60.6952 58.703 61.0172 58.703 61.353ZM58.703 67.859C58.7031 68.0253 58.6705 68.1901 58.6069 68.3438C58.5434 68.4975 58.4501 68.6372 58.3326 68.7548C58.215 68.8725 58.0754 68.9659 57.9217 69.0295C57.768 69.0932 57.6033 69.126 57.437 69.126H10.784C10.448 69.126 10.1257 68.9925 9.88809 68.7549C9.65049 68.5173 9.517 68.195 9.517 67.859C9.517 67.523 9.65049 67.2007 9.88809 66.9631C10.1257 66.7255 10.448 66.592 10.784 66.592H57.437C57.6033 66.592 57.768 66.6248 57.9217 66.6885C58.0754 66.7521 58.215 66.8455 58.3326 66.9632C58.4501 67.0808 58.5434 67.2205 58.6069 67.3742C58.6705 67.5279 58.7031 67.6927 58.703 67.859ZM58.703 74.365C58.703 74.5312 58.6703 74.6959 58.6066 74.8495C58.543 75.0031 58.4498 75.1426 58.3322 75.2602C58.2146 75.3778 58.0751 75.471 57.9215 75.5346C57.7679 75.5983 57.6033 75.631 57.437 75.631H22.337C22.1677 75.6358 21.9991 75.6065 21.8413 75.545C21.6835 75.4835 21.5396 75.391 21.4182 75.2729C21.2967 75.1548 21.2002 75.0136 21.1343 74.8576C21.0684 74.7015 21.0344 74.5339 21.0344 74.3645C21.0344 74.1951 21.0684 74.0275 21.1343 73.8714C21.2002 73.7154 21.2967 73.5742 21.4182 73.4561C21.5396 73.338 21.6835 73.2455 21.8413 73.184C21.9991 73.1225 22.1677 73.0932 22.337 73.098H57.437C57.6033 73.098 57.768 73.1308 57.9217 73.1945C58.0754 73.2581 58.215 73.3515 58.3326 73.4692C58.4501 73.5868 58.5434 73.7265 58.6069 73.8802C58.6705 74.0339 58.7031 74.1987 58.703 74.365ZM17.293 74.365C17.293 74.5313 17.2602 74.696 17.1965 74.8497C17.1329 75.0034 17.0395 75.143 16.9218 75.2606C16.8042 75.3781 16.6645 75.4714 16.5108 75.5349C16.3571 75.5985 16.1923 75.6311 16.026 75.631H10.784C10.6147 75.6358 10.4461 75.6065 10.2883 75.545C10.1305 75.4835 9.98662 75.391 9.86518 75.2729C9.74374 75.1548 9.6472 75.0136 9.58129 74.8576C9.51537 74.7015 9.48141 74.5339 9.48141 74.3645C9.48141 74.1951 9.51537 74.0275 9.58129 73.8714C9.6472 73.7154 9.74374 73.5742 9.86518 73.4561C9.98662 73.338 10.1305 73.2455 10.2883 73.184C10.4461 73.1225 10.6147 73.0932 10.784 73.098H16.026C16.362 73.098 16.6843 73.2315 16.9219 73.4691C17.1595 73.7067 17.293 74.029 17.293 74.365Z" fill="#B4BAC9"/>
</svg>
