<svg width="62" height="63" viewBox="0 0 62 63" fill="none" xmlns="http://www.w3.org/2000/svg">
<path d="M22 36.382V15.178L15.342 1.86C14.895 0.969002 13.997 0.414001 13 0.414001C12.003 0.414001 11.105 0.969001 10.658 1.861L4 15.178V36.382C3.781 36.393 3.564 36.414 3.343 36.414H0V46.045C0 53.788 5.246 60.507 12.758 62.384L13 62.444L13.242 62.383C20.754 60.507 26 53.788 26 46.045V36.414H22.657C22.436 36.414 22.219 36.393 22 36.382ZM14 32.973V16.414H20V36.129C17.761 35.652 15.699 34.571 14 32.973ZM19.382 14.414H6.618L9.618 8.414H16.381L19.382 14.414ZM12.447 2.757C12.658 2.333 13.342 2.334 13.552 2.756L15.382 6.414H10.619L12.447 2.757ZM6 16.414H12V32.973C10.301 34.571 8.239 35.653 6 36.129V16.414ZM24 46.045C24 52.785 19.489 58.645 13 60.381C6.511 58.644 2 52.785 2 46.045V38.414H3.343C6.934 38.414 10.327 37.132 13 34.784C15.673 37.132 19.066 38.414 22.657 38.414H24V46.045Z" fill="#B4BAC9"/>
<path d="M21.293 39.707L18.226 42.774C16.943 41.33 15.079 40.414 13 40.414C9.141 40.414 6 43.555 6 47.414C6 51.273 9.141 54.414 13 54.414C16.859 54.414 20 51.273 20 47.414C20 46.366 19.762 45.375 19.347 44.481L22.707 41.121L21.293 39.707ZM18 47.414C18 50.171 15.757 52.414 13 52.414C10.243 52.414 8 50.171 8 47.414C8 44.657 10.243 42.414 13 42.414C14.528 42.414 15.881 43.118 16.799 44.201L13 48L11.707 46.707L10.293 48.121L13 50.828L17.785 46.043C17.911 46.482 18 46.935 18 47.414Z" fill="#B4BAC9"/>
<path d="M34 24.414H52V12.414H55.414L43 0L30.586 12.414H34V24.414ZM44 22.414H42V18.414H44V22.414ZM50 22.414H46V16.414H40V22.414H36V12.414H50V22.414ZM43 2.828L50.586 10.414H35.414L43 2.828Z" fill="#B4BAC9"/>
<path d="M30 60.414H40V50.414H30V60.414ZM32 52.414H38V58.414H32V52.414Z" fill="#B4BAC9"/>
<path d="M48 52.414H42V54.414H48V52.414Z" fill="#B4BAC9"/>
<path d="M62 52.414H50V54.414H62V52.414Z" fill="#B4BAC9"/>
<path d="M54 56.414H42V58.414H54V56.414Z" fill="#B4BAC9"/>
<path d="M30 48.414H40V38.414H30V48.414ZM32 40.414H38V46.414H32V40.414Z" fill="#B4BAC9"/>
<path d="M48 40.414H42V42.414H48V40.414Z" fill="#B4BAC9"/>
<path d="M62 40.414H50V42.414H62V40.414Z" fill="#B4BAC9"/>
<path d="M54 44.414H42V46.414H54V44.414Z" fill="#B4BAC9"/>
<path d="M30 36.414H40V26.414H30V36.414ZM32 28.414H38V34.414H32V28.414Z" fill="#B4BAC9"/>
<path d="M48 28.414H42V30.414H48V28.414Z" fill="#B4BAC9"/>
<path d="M62 28.414H50V30.414H62V28.414Z" fill="#B4BAC9"/>
<path d="M54 32.414H42V34.414H54V32.414Z" fill="#B4BAC9"/>
</svg>
