<svg width="95" height="90" viewBox="0 0 95 90" fill="none" xmlns="http://www.w3.org/2000/svg">
<path fill-rule="evenodd" clip-rule="evenodd" d="M77.8428 33.9762C76.9092 30.0739 77.1983 25.9762 78.6709 22.2382C78.8818 21.6171 79.0928 20.9765 79.292 20.2812C76.7959 20.371 74.3428 20.9491 72.0693 21.9843C69.4521 23.207 66.9951 24.7382 64.749 26.5507C64.4677 29.4491 65.1318 32.3632 66.6435 34.8515C67.3466 35.9531 68.3466 36.832 69.5302 37.3788C70.6279 37.8553 71.8544 37.9374 73.0068 37.6132C74.9716 36.9686 76.6709 35.6913 77.8427 33.9843L77.8428 33.9762ZM35.1158 33.3121C33.983 33.7066 32.8775 34.1637 31.7955 34.6793C31.5142 34.7965 31.2955 35.0231 31.1861 35.3082C31.0767 35.5934 31.0884 35.9059 31.2213 36.1832C31.3502 36.4567 31.5884 36.6637 31.8775 36.7574C32.1666 36.8512 32.483 36.8238 32.7486 36.6793C39.9947 33.2184 48.2956 32.6832 55.9286 35.1832C56.4989 35.3395 57.0888 35.0192 57.2724 34.4567C57.4521 33.8942 57.163 33.2887 56.6122 33.0778C55.4677 32.7028 54.2997 32.3903 53.12 32.1403C55.3739 30.5973 57.2372 28.5505 58.5575 26.1559C59.2489 26.2574 59.9442 26.3785 60.6473 26.5152C61.2801 26.6363 61.9012 26.7691 62.5106 26.9137V26.9176C62.3036 30.1324 63.1083 33.3356 64.8114 36.0738C65.7489 37.5269 67.0848 38.6793 68.663 39.3941C70.2138 40.0699 71.9482 40.1949 73.581 39.7417C75.7802 39.066 77.7177 37.7261 79.1279 35.9097C80.5576 37.3902 81.8232 39.0269 82.8935 40.7847C84.2138 42.9683 85.2568 45.3042 85.999 47.7456C86.124 48.1519 86.4717 48.4527 86.8936 48.5152C88.7139 48.855 90.4522 49.5464 92.0108 50.5464C92.7491 53.4644 92.6748 56.5308 91.7998 59.4097C89.2764 60.8355 86.5264 61.8159 83.6709 62.3159C83.2686 62.3862 82.9365 62.6753 82.8076 63.062C81.749 65.8979 80.1006 68.4761 77.9717 70.6245C75.7999 72.8159 73.1983 74.5347 70.3272 75.6675C69.9601 75.8159 69.6983 76.144 69.6397 76.5307L68.132 86.3901C68.0812 86.7573 67.7648 87.0269 67.3937 87.0151H60.0773C59.7023 87.0269 59.378 86.7456 59.3429 86.3667L58.6163 80.3472L58.6124 80.3511C58.5812 80.0581 58.4288 79.7925 58.1984 79.6089C57.9679 79.4253 57.6749 79.3433 57.382 79.3784C57.3195 79.3863 57.253 79.398 57.1905 79.4175C52.0303 80.7964 46.6005 80.7925 41.4405 79.4097C40.8507 79.2495 40.2452 79.6011 40.085 80.1949C40.0694 80.2535 40.0577 80.3159 40.0538 80.3745L39.0968 86.3941C39.0421 86.7573 38.7257 87.0269 38.3585 87.0151H31.3624C31.1866 87.019 31.0186 86.9605 30.8819 86.8511C30.7491 86.7417 30.6632 86.5855 30.6319 86.4175L28.8194 76.6597C28.753 76.312 28.5304 76.0191 28.2179 75.8628C24.0031 73.5151 20.4913 70.0894 18.0339 65.9409C15.4987 61.8667 14.1159 57.187 14.0222 52.3939C14.0222 47.8509 15.2527 43.3939 17.5847 39.4959C19.9167 35.6014 23.2644 32.41 27.2683 30.2654C27.7917 30.0467 28.3347 29.8279 28.905 29.6131C29.2565 29.4803 29.5846 29.3553 29.8932 29.2459C31.358 30.9217 33.1314 32.3004 35.1158 33.3121ZM28.483 27.4019C28.272 27.0894 28.0728 26.7652 27.8814 26.4332C25.5455 22.3863 24.9087 17.5738 26.1197 13.0622C27.3267 8.54656 30.2799 4.69886 34.3267 2.36316L34.397 2.32801L34.3931 2.3241C38.44 0.0115983 43.2369 -0.605602 47.7331 0.609298C52.2331 1.8281 56.0651 4.7773 58.3931 8.8124C61.0767 13.4608 61.4947 19.0744 59.5337 24.0664C60.0493 24.1484 60.5571 24.2383 61.061 24.3359C61.8149 24.4844 62.5766 24.6484 63.3383 24.8359V24.8398C65.7406 22.8945 68.3695 21.2539 71.1703 19.9492C74.1586 18.582 77.4242 17.9414 80.7055 18.0781C80.7954 18.0781 80.8852 18.0899 80.9712 18.1094C81.5688 18.2461 81.9399 18.8438 81.7993 19.4414C81.4946 20.7266 81.1196 21.8555 80.7641 22.9336V22.9297C79.4164 26.3594 79.1625 30.1172 80.0375 33.6957C81.8617 35.4691 83.4555 37.4652 84.7758 39.6371C86.0805 41.7855 87.1313 44.0824 87.9086 46.473C89.9438 46.93 91.8734 47.7738 93.5922 48.9574C93.8071 49.1058 93.9633 49.3207 94.0297 49.5746C95.0375 53.1644 94.9438 56.973 93.7719 60.5126C93.686 60.7665 93.5102 60.9852 93.2797 61.118C90.6156 62.6844 87.7055 63.7938 84.6703 64.3953C83.4984 67.3055 81.7562 69.9539 79.5492 72.1844C77.3148 74.4422 74.6586 76.243 71.7367 77.4852L70.3265 86.7235C70.1078 88.1688 68.8617 89.2391 67.3968 89.2391H60.0765C58.5804 89.2391 57.3187 88.118 57.139 86.6297L56.5648 81.8602H56.5609C51.7875 82.9461 46.8304 82.9422 42.0609 81.8485L41.2835 86.743C41.0609 88.1805 39.8187 89.243 38.3616 89.2391H31.3616C29.9358 89.2391 28.7093 88.2196 28.4554 86.8172L26.7366 77.575C22.3694 75.0398 18.7249 71.4266 16.1466 67.087C13.6661 63.0714 12.1896 58.5167 11.8458 53.814C11.1037 53.9859 10.3497 54.1226 9.58804 54.2164C9.23257 54.7203 8.82632 55.189 8.36924 55.607C6.35754 57.3179 3.84584 58.3258 1.20904 58.4781C0.607483 58.5367 0.0684431 58.0952 0.00594307 57.4898C-0.0565569 56.8843 0.380943 56.3453 0.986413 56.275C2.98641 56.1578 4.90831 55.4586 6.52161 54.2672C3.63101 53.943 2.17391 52.4625 1.67391 50.693C1.38094 49.5563 1.43563 48.3571 1.83016 47.2516C2.18563 46.1774 2.79891 45.2086 3.61926 44.4274C5.22476 42.9547 7.37316 42.5563 9.24426 44.5875V44.5914C10.256 45.7476 10.8771 47.193 11.0099 48.7242C11.1153 49.7554 11.0255 50.7945 10.7442 51.7906C11.088 51.7203 11.4435 51.6383 11.8184 51.5446C11.9708 46.736 13.3887 42.0524 15.9278 37.9666C18.4708 33.8846 22.045 30.5408 26.2908 28.2791C26.3221 28.2634 26.3533 28.2478 26.3885 28.2322C26.9705 27.9861 27.5447 27.7556 28.1151 27.5408L28.4823 27.4002L28.483 27.4019ZM49.62 31.5972C49.7801 31.5269 49.9403 31.4488 50.1044 31.3589C50.3466 31.2378 50.5692 31.1167 50.7762 30.9996C50.8192 30.9722 50.8583 30.9488 50.9051 30.9253C54.4051 28.8823 56.9637 25.5347 58.0145 21.6206C59.0692 17.7026 58.5341 13.5268 56.5301 9.99963C56.4911 9.94885 56.4598 9.89026 56.4325 9.83166C54.3817 6.33556 51.038 3.78866 47.1239 2.74186C43.2098 1.69106 39.0419 2.22624 35.5189 4.23016C35.472 4.26141 35.4251 4.28876 35.3744 4.3161C31.8666 6.363 29.308 9.7106 28.2572 13.6364C27.2064 17.5583 27.7493 21.738 29.7611 25.2614C29.7923 25.3122 29.8236 25.363 29.847 25.4137C31.7806 28.7145 34.8704 31.1754 38.5189 32.316C42.1556 31.4567 45.9095 31.2144 49.6279 31.5973L49.62 31.5972ZM35.89 7.27321L36.4251 8.2029C34.0618 10.1834 33.4603 13.5779 35.0071 16.2498C37.4485 20.4764 40.4524 19.5779 43.4563 18.6834C45.6243 18.0389 47.7922 17.3904 49.3508 20.0975L49.3821 20.1483C50.4641 22.0975 49.8157 24.5506 47.9133 25.7108C47.8664 25.7342 47.8195 25.7616 47.7727 25.7889C45.8196 26.8748 43.3625 26.2147 42.2102 24.3006C41.9797 23.8397 41.4641 23.5975 40.9641 23.7147C40.4602 23.8319 40.1047 24.2811 40.1047 24.7967C40.1047 24.992 40.1555 25.1834 40.257 25.3514C41.7961 28.0272 45.0382 29.2069 47.9406 28.1483L48.4758 29.0779V29.074C48.7805 29.6053 49.4602 29.785 49.9875 29.4803C50.5188 29.1717 50.6984 28.4959 50.3938 27.9647L49.8586 27.0389H49.8547C52.1985 25.0741 52.8078 21.7186 51.3078 19.0584C51.2961 19.035 51.2843 19.0115 51.2726 18.9881C48.8351 14.7654 45.8312 15.6639 42.8234 16.5584C40.6554 17.2068 38.4836 17.8514 36.9289 15.1482C35.7883 13.1677 36.4641 10.6326 38.4445 9.4841C40.4054 8.3591 42.9054 9.00363 44.0734 10.945C44.2101 11.2184 44.4523 11.4294 44.7492 11.5153C45.0461 11.6052 45.3625 11.5661 45.632 11.4098C45.8976 11.2536 46.0851 10.9958 46.1516 10.6911C46.218 10.3903 46.1594 10.0778 45.9836 9.8239C44.4211 7.1989 41.2141 6.0544 38.343 7.1012L37.8078 6.17542H37.8117C37.507 5.64417 36.8313 5.46058 36.3 5.76136C35.7688 6.06605 35.5853 6.74198 35.89 7.27321ZM70.39 47.2262C70.6009 49.6637 72.6439 51.5348 75.0931 51.5348C77.5384 51.5348 79.5814 49.6637 79.7962 47.2262C79.8235 46.9332 79.7337 46.6364 79.5462 46.4098C79.3548 46.1793 79.0813 46.0387 78.7884 46.0114C78.4915 45.9879 78.1985 46.0817 77.972 46.2731C77.7454 46.4645 77.6087 46.7379 77.5852 47.0348C77.472 48.3278 76.3899 49.32 75.093 49.32C73.7962 49.32 72.7141 48.3278 72.6008 47.0348C72.5774 46.7379 72.4407 46.4645 72.2141 46.2731C71.9876 46.0817 71.6946 45.9879 71.3977 46.0114C71.1047 46.0387 70.8313 46.1793 70.6438 46.4098C70.4524 46.6364 70.3626 46.9332 70.39 47.2262ZM8.25298 52.1207C8.72564 51.1324 8.92095 50.0348 8.80767 48.9449C8.72174 47.8902 8.30376 46.8902 7.61237 46.0894C7.30768 45.7183 6.85456 45.4996 6.37407 45.4957C5.8936 45.4879 5.43266 45.6949 5.12017 46.0582C4.5733 46.5816 4.16314 47.234 3.93267 47.9527C3.68267 48.6402 3.6397 49.3824 3.81548 50.0894C4.15923 51.316 5.45218 52.2575 8.25298 52.1207Z" fill="#B4BAC9"/>
</svg>
